<svg width="20" height="20" viewBox="0 0 20 20" fill="none" xmlns="http://www.w3.org/2000/svg">
<g clip-path="url(#clip0_2017_92)">
<path d="M20 1.76471V11.14C20 12.1129 19.2082 12.9047 18.2353 12.9047H17.6376V11.7282H18.2353C18.56 11.7282 18.8235 11.4635 18.8235 11.14V1.76471C18.8235 1.44118 18.56 1.17647 18.2353 1.17647H1.76471C1.44 1.17647 1.17647 1.44118 1.17647 1.76471V11.14C1.17647 11.4635 1.44 11.7282 1.76471 11.7282H3.52941V15.1306L5.62235 13.2847L6.4 14.1671L2.35294 17.7376V12.9047H1.76471C0.791765 12.9047 0 12.1129 0 11.14V1.76471C0 0.791765 0.791765 0 1.76471 0H18.2353C19.2082 0 20 0.791765 20 1.76471ZM16.4941 11.2235V14.8035C16.4941 15.7765 15.7024 16.5682 14.7294 16.5682H14.1412V20.1729L9.82706 16.5682H8.82353C7.85059 16.5682 7.05882 15.7765 7.05882 14.8035V11.2235C7.05882 10.2506 7.85059 9.45882 8.82353 9.45882H14.7294C15.7024 9.45882 16.4941 10.2506 16.4941 11.2235ZM15.3176 11.2235C15.3176 10.9 15.0541 10.6353 14.7294 10.6353H8.82353C8.49882 10.6353 8.23529 10.9 8.23529 11.2235V14.8035C8.23529 15.1271 8.49882 15.3918 8.82353 15.3918H10.2553L12.9647 17.6576V15.3918H14.7294C15.0541 15.3918 15.3176 15.1271 15.3176 14.8035V11.2235Z" fill="#666666"/>
</g>
<defs>
<clipPath id="clip0_2017_92">
<rect width="20" height="20" fill="white"/>
</clipPath>
</defs>
</svg>
