<svg width="40" height="40" viewBox="0 0 40 40" fill="none" xmlns="http://www.w3.org/2000/svg">
<path d="M6.34058 3.08775C6.34058 1.39214 4.92119 0.0175781 3.17029 0.0175781C1.41939 0.0175781 0 1.39214 0 3.08775V26.6316C0 28.3272 1.41939 29.7017 3.17029 29.7017C4.92119 29.7017 6.34058 28.3272 6.34058 26.6316V3.08775Z" fill="white"/>
<path d="M14.837 12.0527C14.837 10.357 13.4176 8.98248 11.6667 8.98248C9.91579 8.98248 8.4964 10.357 8.4964 12.0527V22.7368C8.4964 24.4324 9.91579 25.807 11.6667 25.807C13.4176 25.807 14.837 24.4324 14.837 22.7368V12.0527Z" fill="white"/>
<path d="M6.34058 34.4034C6.34058 32.7078 4.92119 31.3333 3.17029 31.3333C1.41939 31.3333 0 32.7078 0 34.4034V36.9297C0 38.6253 1.41939 39.9999 3.17029 39.9999C4.92119 39.9999 6.34058 38.6253 6.34058 36.9297V34.4034Z" fill="white"/>
<path d="M14.837 30.7544C14.837 29.0588 13.4176 27.6842 11.6667 27.6842C9.91579 27.6842 8.4964 29.0588 8.4964 30.7544V36.9298C8.4964 38.6254 9.91579 40 11.6667 40C13.4176 40 14.837 38.6254 14.837 36.9298V30.7544Z" fill="white"/>
<path d="M23.1703 20.3684C23.1703 18.6728 21.7509 17.2982 20 17.2982C18.2491 17.2982 16.8297 18.6728 16.8297 20.3684V24.614C16.8297 26.3096 18.2491 27.6842 20 27.6842C21.7509 27.6842 23.1703 26.3096 23.1703 24.614V20.3684Z" fill="white"/>
<path d="M23.1703 32.6842C23.1703 30.9886 21.7509 29.614 20 29.614C18.2491 29.614 16.8297 30.9886 16.8297 32.6842V36.9298C16.8297 38.6254 18.2491 40 20 40C21.7509 40 23.1703 38.6254 23.1703 36.9298V32.6842Z" fill="white"/>
<path d="M33.6595 26.614C33.6595 28.3096 35.0789 29.6841 36.8298 29.6841C38.5807 29.6841 40.0001 28.3096 40.0001 26.614V3.07016C40.0001 1.37455 38.5807 -9.53674e-06 36.8298 -9.53674e-06C35.0789 -9.53674e-06 33.6595 1.37455 33.6595 3.07016V26.614Z" fill="white"/>
<path d="M25.1449 22.7193C25.1449 24.4149 26.5643 25.7894 28.3152 25.7894C30.0661 25.7894 31.4855 24.4149 31.4855 22.7193V12.0351C31.4855 10.3395 30.0661 8.9649 28.3152 8.9649C26.5643 8.9649 25.1449 10.3395 25.1449 12.0351V22.7193Z" fill="white"/>
<path d="M33.6595 36.9122C33.6595 38.6078 35.0789 39.9824 36.8298 39.9824C38.5807 39.9824 40.0001 38.6078 40.0001 36.9122V34.3859C40.0001 32.6903 38.5807 31.3157 36.8298 31.3157C35.0789 31.3157 33.6595 32.6903 33.6595 34.3859V36.9122Z" fill="white"/>
<path d="M25.1449 36.9297C25.1449 38.6253 26.5643 39.9999 28.3152 39.9999C30.0661 39.9999 31.4855 38.6253 31.4855 36.9297V30.7543C31.4855 29.0587 30.0661 27.6841 28.3152 27.6841C26.5643 27.6841 25.1449 29.0587 25.1449 30.7543V36.9297Z" fill="white"/>
</svg>
