<svg width="232" height="24" viewBox="0 0 232 24" fill="none" xmlns="http://www.w3.org/2000/svg">
<path d="M3.5 2.36C3.5 1.3935 2.7165 0.610001 1.75 0.610001C0.783502 0.610001 0 1.3935 0 2.36V15.78C0 16.7465 0.783502 17.53 1.75 17.53C2.7165 17.53 3.5 16.7465 3.5 15.78V2.36Z" fill="#331D4C"/>
<path d="M8.18994 7.47C8.18994 6.5035 7.40644 5.72 6.43994 5.72C5.47344 5.72 4.68994 6.5035 4.68994 7.47V13.56C4.68994 14.5265 5.47344 15.31 6.43994 15.31C7.40644 15.31 8.18994 14.5265 8.18994 13.56V7.47Z" fill="#331D4C"/>
<path d="M3.5 20.21C3.5 19.2435 2.7165 18.46 1.75 18.46C0.783502 18.46 0 19.2435 0 20.21V21.65C0 22.6165 0.783502 23.4 1.75 23.4C2.7165 23.4 3.5 22.6165 3.5 21.65V20.21Z" fill="#331D4C"/>
<path d="M8.18994 18.13C8.18994 17.1635 7.40644 16.38 6.43994 16.38C5.47344 16.38 4.68994 17.1635 4.68994 18.13V21.65C4.68994 22.6165 5.47344 23.4 6.43994 23.4C7.40644 23.4 8.18994 22.6165 8.18994 21.65V18.13Z" fill="#331D4C"/>
<path d="M12.79 12.21C12.79 11.2435 12.0065 10.46 11.04 10.46C10.0735 10.46 9.29004 11.2435 9.29004 12.21V14.63C9.29004 15.5965 10.0735 16.38 11.04 16.38C12.0065 16.38 12.79 15.5965 12.79 14.63V12.21Z" fill="#331D4C"/>
<path d="M12.79 19.23C12.79 18.2635 12.0065 17.48 11.04 17.48C10.0735 17.48 9.29004 18.2635 9.29004 19.23V21.65C9.29004 22.6165 10.0735 23.4 11.04 23.4C12.0065 23.4 12.79 22.6165 12.79 21.65V19.23Z" fill="#331D4C"/>
<path d="M18.5801 15.77C18.5801 16.7365 19.3636 17.52 20.3301 17.52C21.2966 17.52 22.0801 16.7365 22.0801 15.77L22.0801 2.35C22.0801 1.3835 21.2966 0.6 20.3301 0.6C19.3636 0.6 18.5801 1.3835 18.5801 2.35V15.77Z" fill="#331D4C"/>
<path d="M13.8799 13.55C13.8799 14.5165 14.6634 15.3 15.6299 15.3C16.5964 15.3 17.3799 14.5165 17.3799 13.55V7.46C17.3799 6.4935 16.5964 5.71 15.6299 5.71C14.6634 5.71 13.8799 6.4935 13.8799 7.46V13.55Z" fill="#331D4C"/>
<path d="M18.5801 21.64C18.5801 22.6065 19.3636 23.39 20.3301 23.39C21.2966 23.39 22.0801 22.6065 22.0801 21.64V20.2C22.0801 19.2335 21.2966 18.45 20.3301 18.45C19.3636 18.45 18.5801 19.2335 18.5801 20.2V21.64Z" fill="#331D4C"/>
<path d="M13.8799 21.65C13.8799 22.6165 14.6634 23.4 15.6299 23.4C16.5964 23.4 17.3799 22.6165 17.3799 21.65V18.13C17.3799 17.1635 16.5964 16.38 15.6299 16.38C14.6634 16.38 13.8799 17.1635 13.8799 18.13V21.65Z" fill="#331D4C"/>
<path d="M38.6501 0.77C40.7001 0.77 42.3801 1.02 43.7101 1.51C45.0401 2 46.0301 2.75 46.6801 3.75C47.3301 4.75 47.6501 6.01 47.6501 7.53C47.6501 8.56 47.4501 9.46 47.0601 10.23C46.6701 11 46.1601 11.65 45.5201 12.19C44.8801 12.72 44.1901 13.16 43.4501 13.5L50.0801 23.32H44.7801L39.4001 14.67H36.8601V23.32H32.0801V0.77H38.6501ZM38.3101 4.69H36.8601V10.78H38.4001C39.9801 10.78 41.1201 10.52 41.8001 9.99C42.4801 9.46 42.8301 8.68 42.8301 7.65C42.8301 6.62 42.4601 5.82 41.7301 5.37C40.9901 4.92 39.8601 4.69 38.3101 4.69Z" fill="#331D4C"/>
<path d="M68.3002 23.31L66.6702 17.94H58.4502L56.8202 23.31H51.6702L59.6302 0.68H65.4702L73.4602 23.31H68.3102H68.3002ZM65.5302 13.94L63.9002 8.7C63.8002 8.35 63.6602 7.9 63.4902 7.35C63.3202 6.8 63.1502 6.24 62.9802 5.67C62.8102 5.1 62.6702 4.6 62.5702 4.18C62.4702 4.6 62.3302 5.12 62.1502 5.75C61.9702 6.37 61.8002 6.96 61.6302 7.52C61.4602 8.08 61.3502 8.47 61.2802 8.71L59.6602 13.95H65.5302V13.94Z" fill="#331D4C"/>
<path d="M77.8701 23.31V0.77H82.6501V23.31H77.8701Z" fill="#331D4C"/>
<path d="M109.9 23.31H103.83L94.0201 6.26H93.8801C93.9201 6.97 93.9602 7.68 93.9902 8.4C94.0202 9.12 94.0501 9.84 94.0801 10.55C94.1101 11.26 94.1402 11.98 94.1702 12.7V23.31H89.9001V0.77H95.9302L105.72 17.65H105.83C105.81 16.95 105.78 16.26 105.75 15.57C105.72 14.88 105.69 14.19 105.67 13.5C105.64 12.81 105.62 12.12 105.6 11.43V0.76H109.9V23.3V23.31Z" fill="#331D4C"/>
<path d="M126.69 23.31L121.26 5.63H121.12C121.14 6.05 121.17 6.69 121.22 7.53C121.27 8.38 121.31 9.28 121.35 10.24C121.39 11.2 121.41 12.06 121.41 12.83V23.31H117.14V0.77H123.65L128.98 18.01H129.07L134.73 0.77H141.24V23.31H136.78V12.64C136.78 11.93 136.79 11.11 136.82 10.19C136.85 9.26 136.88 8.38 136.92 7.55C136.96 6.71 136.99 6.08 137.01 5.66H136.87L131.06 23.31H126.68H126.69Z" fill="#331D4C"/>
<path d="M162.3 23.31L160.67 17.94H152.45L150.82 23.31H145.67L153.63 0.68H159.47L167.46 23.31H162.31H162.3ZM159.52 13.94L157.89 8.7C157.79 8.35 157.65 7.9 157.48 7.35C157.31 6.8 157.14 6.24 156.97 5.67C156.8 5.1 156.66 4.6 156.56 4.18C156.46 4.6 156.32 5.12 156.14 5.75C155.96 6.38 155.79 6.96 155.62 7.52C155.46 8.08 155.34 8.47 155.27 8.71L153.65 13.95H159.52V13.94Z" fill="#331D4C"/>
<path d="M189.99 23.31H184.56L178.66 13.81L176.64 15.26V23.31H171.86V0.77H176.64V11.08C176.96 10.64 177.27 10.2 177.58 9.75C177.89 9.31 178.2 8.87 178.52 8.42L184.63 0.76H189.93L182.07 10.73L189.99 23.29V23.31Z" fill="#331D4C"/>
<path d="M207.39 23.31H194.41V0.77H207.39V4.69H199.19V9.64H206.82V13.56H199.19V19.37H207.39V23.32V23.31Z" fill="#331D4C"/>
<path d="M220.24 0.77C222.29 0.77 223.97 1.02 225.3 1.51C226.63 2 227.62 2.75 228.27 3.75C228.92 4.75 229.24 6.01 229.24 7.53C229.24 8.56 229.04 9.46 228.65 10.23C228.26 11 227.75 11.65 227.11 12.19C226.47 12.72 225.78 13.16 225.04 13.5L231.67 23.32H226.37L220.99 14.67H218.45V23.32H213.67V0.77H220.24ZM219.9 4.69H218.45V10.78H219.99C221.57 10.78 222.71 10.52 223.39 9.99C224.07 9.46 224.42 8.68 224.42 7.65C224.42 6.62 224.05 5.82 223.32 5.37C222.59 4.92 221.45 4.69 219.91 4.69H219.9Z" fill="#331D4C"/>
</svg>
